<svg width="680" height="680" viewBox="0 0 680 680" xmlns="http://www.w3.org/2000/svg">
  <rect width="680" height="680" fill="#0d0f14" rx="80"/>

  <!-- Ghost body -->
  <path
    d="
      M 150 570
      C 150 570, 165 490, 185 450
      C 210 395, 225 350, 248 295
      C 268 245, 288 185, 340 135
      C 392 85, 420 100, 445 138
      C 472 178, 485 228, 505 285
      C 525 342, 540 395, 558 450
      C 572 490, 585 535, 585 570
      C 575 548, 555 525, 535 548
      C 515 570, 498 530, 478 550
      C 458 570, 440 530, 420 550
      C 400 570, 382 530, 362 550
      C 342 570, 322 530, 302 550
      C 282 570, 262 530, 242 550
      C 222 570, 200 548, 182 565
      C 170 574, 158 574, 150 570
      Z
    "
    fill="#ff6b35"
    fill-opacity="0.12"
    stroke="#ff6b35"
    stroke-width="11"
    stroke-linejoin="round"
  />

  <!-- Left eye -->
  <ellipse fill="#ff6b35" cx="278" cy="370" rx="36" ry="44"/>
  <ellipse fill="#0d0f14" cx="286" cy="364" rx="14" ry="18"/>
  <text font-family="monospace" fill="#0d0f14" font-size="38" font-weight="bold" x="278" y="385" text-anchor="middle">σ</text>

  <!-- Right eye -->
  <ellipse fill="#ff6b35" cx="402" cy="370" rx="36" ry="44"/>
  <ellipse fill="#0d0f14" cx="410" cy="364" rx="14" ry="18"/>
  <text font-family="monospace" fill="#0d0f14" font-size="38" font-weight="bold" x="402" y="385" text-anchor="middle">σ</text>

  <!-- x axis -->
  <line x1="90" y1="578" x2="610" y2="578" stroke="#ff6b35" stroke-width="3" stroke-opacity="0.3"/>
  <polygon points="610,571 626,578 610,585" fill="#ff6b35" fill-opacity="0.3"/>

  <!-- y axis -->
  <line x1="108" y1="590" x2="108" y2="90" stroke="#ff6b35" stroke-width="3" stroke-opacity="0.3"/>
  <polygon points="101,90 108,74 115,90" fill="#ff6b35" fill-opacity="0.3"/>

  <!-- Formula -->
  <text font-family="monospace" fill="#ff6b35" font-size="24" x="118" y="75" text-anchor="start">h(x) = ghost(x)</text>
</svg>
