<svg width="680" height="680" viewBox="0 0 680 680" xmlns="http://www.w3.org/2000/svg">

  <!-- Ghost body - solid orange, transparent background -->
  <path
    d="
      M 150 570
      C 150 570, 165 490, 185 450
      C 210 395, 225 350, 248 295
      C 268 245, 288 185, 340 135
      C 392 85, 420 100, 445 138
      C 472 178, 485 228, 505 285
      C 525 342, 540 395, 558 450
      C 572 490, 585 535, 585 570
      C 575 548, 555 525, 535 548
      C 515 570, 498 530, 478 550
      C 458 570, 440 530, 420 550
      C 400 570, 382 530, 362 550
      C 342 570, 322 530, 302 550
      C 282 570, 262 530, 242 550
      C 222 570, 200 548, 182 565
      C 170 574, 158 574, 150 570
      Z
    "
    fill="#ff6b35"
    stroke="#ff6b35"
    stroke-width="11"
    stroke-linejoin="round"
  />

  <!-- Left eye: { -->
  <text font-family="monospace" fill="#0d0f14" font-size="90" font-weight="bold" x="278" y="400" text-anchor="middle">{</text>

  <!-- Right eye: } -->
  <text font-family="monospace" fill="#0d0f14" font-size="90" font-weight="bold" x="402" y="400" text-anchor="middle">}</text>

  <!-- x axis -->
  <line x1="90" y1="578" x2="610" y2="578" stroke="#ff6b35" stroke-width="8"/>
  <polygon points="610,568 630,578 610,588" fill="#ff6b35"/>

  <!-- y axis -->
  <line x1="108" y1="595" x2="108" y2="90" stroke="#ff6b35" stroke-width="8"/>
  <polygon points="98,90 108,70 118,90" fill="#ff6b35"/>

  <!-- Formula -->
  <text font-family="monospace" fill="#ff6b35" font-size="24" x="118" y="72" text-anchor="start">h(x) = ghost(x)</text>
</svg>
