<svg width="512" height="512" viewBox="0 0 512 512" xmlns="http://www.w3.org/2000/svg">
  <line x1="90" y1="110" x2="90" y2="380" stroke="#ec4899" stroke-opacity="0.35" stroke-width="6"/>
  <line x1="90" y1="380" x2="422" y2="380" stroke="#ec4899" stroke-opacity="0.35" stroke-width="6"/>
  <path d="M 90.0,369.5 L 95.5,367.1 L 101.1,364.2 L 106.6,360.9 L 112.1,357.0 L 117.7,352.6 L 123.2,347.5 L 128.7,341.8 L 134.3,335.3 L 139.8,328.1 L 145.3,320.2 L 150.9,311.5 L 156.4,302.1 L 161.9,292.0 L 167.5,281.3 L 173.0,270.1 L 178.5,258.5 L 184.1,246.5 L 189.6,234.4 L 195.1,222.3 L 200.7,210.4 L 206.2,198.8 L 211.7,187.8 L 217.3,177.5 L 222.8,168.2 L 228.3,160.0 L 233.9,153.0 L 239.4,147.4 L 244.9,143.3 L 250.5,140.8 L 256.0,140.0 L 261.5,140.8 L 267.1,143.3 L 272.6,147.4 L 278.1,153.0 L 283.7,160.0 L 289.2,168.2 L 294.7,177.5 L 300.3,187.8 L 305.8,198.8 L 311.3,210.4 L 316.9,222.3 L 322.4,234.4 L 327.9,246.5 L 333.5,258.5 L 339.0,270.1 L 344.5,281.3 L 350.1,292.0 L 355.6,302.1 L 361.1,311.5 L 366.7,320.2 L 372.2,328.1 L 377.7,335.3 L 383.3,341.8 L 388.8,347.5 L 394.3,352.6 L 399.9,357.0 L 405.4,360.9 L 410.9,364.2 L 416.5,367.1 L 422.0,369.5 L 422.0,380.0 L 416.5,380.3 L 410.9,380.6 L 405.4,381.0 L 399.9,381.5 L 394.3,381.8 L 388.8,382.1 L 383.3,382.1 L 377.7,381.8 L 372.2,381.1 L 366.7,380.0 L 361.1,378.6 L 355.6,376.9 L 350.1,375.3 L 344.5,373.7 L 339.0,372.7 L 333.5,372.3 L 327.9,372.8 L 322.4,374.3 L 316.9,376.8 L 311.3,380.0 L 305.8,383.7 L 300.3,387.5 L 294.7,390.9 L 289.2,393.4 L 283.7,394.7 L 278.1,394.4 L 272.6,392.5 L 267.1,389.3 L 261.5,384.9 L 256.0,380.0 L 250.5,375.1 L 244.9,370.7 L 239.4,367.5 L 233.9,365.6 L 228.3,365.3 L 222.8,366.6 L 217.3,369.1 L 211.7,372.5 L 206.2,376.3 L 200.7,380.0 L 195.1,383.2 L 189.6,385.7 L 184.1,387.2 L 178.5,387.7 L 173.0,387.3 L 167.5,386.3 L 161.9,384.7 L 156.4,383.1 L 150.9,381.4 L 145.3,380.0 L 139.8,378.9 L 134.3,378.2 L 128.7,377.9 L 123.2,377.9 L 117.7,378.2 L 112.1,378.5 L 106.6,379.0 L 101.1,379.4 L 95.5,379.7 L 90.0,380.0 Z" fill="#ec4899"/>
  <text x="206" y="265" font-family="monospace" font-size="90" font-weight="bold" fill="#faf4e8" text-anchor="middle">&lt;</text>
  <text x="306" y="265" font-family="monospace" font-size="90" font-weight="bold" fill="#faf4e8" text-anchor="middle">&gt;</text>
</svg>